<svg xmlns="http://www.w3.org/2000/svg" width="37" height="37" viewBox="0 0 37 37">
    <g fill="none" fill-rule="evenodd">
        <rect width="37" height="37" fill="#EAB051" rx="18.5"/>
        <g>
            <path d="M0 0H24V24H0z" transform="rotate(90 12 18)"/>
            <g fill="#FFF" fill-rule="nonzero">
                <path d="M9.979 4.1c-.071.156-.226.256-.397.256H7.84v5.662c0 .24-.195.435-.436.435H5.662c-.24 0-.435-.195-.435-.435V4.356H3.484c-.17 0-.325-.1-.396-.256-.071-.156-.043-.338.069-.467L6.206.15C6.289.054 6.408 0 6.533 0c.126 0 .245.055.328.149L9.91 3.633c.113.128.14.311.069.467z" transform="rotate(90 12 18) rotate(-90 11.5 6.5)"/>
                <path d="M11.324 9.582v2.614H1.742V9.582H0v3.485c0 .481.39.87.871.87h11.325c.481 0 .87-.389.87-.87V9.582h-1.742z" transform="rotate(90 12 18) rotate(-90 11.5 6.5)"/>
            </g>
        </g>
    </g>
</svg>
